<?xml version="1.0" encoding="UTF-8"?><svg id="a" xmlns="http://www.w3.org/2000/svg" viewBox="0 0 1000 1000"><path d="M174.98,456.31c1.28,3.36,1.44,5.13,1.44,7.53,0,7.05-6.73,12.65-13.29,12.65s-9.29-3.85-11.85-7.69c-2.91-4.37-7.01-7.5-9.88-9.25-6.72-4.11-9.83-1.11-17.98-5.44-5.56-2.95-6.25-5.49-8.17-4.94-4.87,1.41-7.85,19.95,.46,29.97,5.92,7.14,15.22,6.93,15.25,10.68,.02,3.7-9,3.64-14.89,10.7-8.47,10.15-5.77,29.01-.77,30.54,1.55,.48,2.19-1.07,6.8-3.61,9.07-5,12.27-2.14,19.3-6.64,6.24-3.99,9.88-9.25,9.88-9.25,2.72-4.48,5.45-7.69,11.85-7.69,6.01,0,13.29,5.29,13.29,12.65,0,2.4-.16,4.16-1.44,7.53-7.21,16.34-24.82,24.5-42.6,24.5-28.19,0-47.25-20.18-49.49-45.81-.8-8.65-.8-16.82,0-24.82,2.24-25.94,21.3-46.13,49.33-46.13,17.94,0,35.55,8.17,42.76,24.5Z" fill="#5088ff"/><path d="M245.72,453.65c5.11,1.38,10.88,4.55,10.88,12.75,0,7.23-4.71,13.07-11.53,13.07-1.46,0-3.57-.32-5.03-.65-1.95-.33-3.41-.65-6.17-.65-4.22,0-6.66,2.27-6.66,8.28v42.54c0,7.47-5.84,13.48-13.48,13.48s-13.48-6.01-13.48-13.48v-48.22c0-17.53,10.23-28.9,29.87-28.9,6.17,0,12.1,.89,15.59,1.79Z" fill="#5088ff"/><path d="M265.04,509.02c-.65-6.49-.65-16.24,0-22.89,1.79-19.65,18.19-34.26,40.43-34.26s38.64,14.61,40.43,34.26c.65,6.66,.65,16.4,0,22.89-1.79,19.65-18.19,34.26-40.43,34.26s-38.64-14.61-40.43-34.26Zm54.56-4.38c.49-5.2,.32-9.74,0-13.96-.65-7.63-5.28-13.15-14.13-13.15s-13.48,5.52-14.13,13.15c-.32,4.22-.49,8.77,0,13.96,.65,7.96,5.28,12.99,14.13,12.99s13.48-5.03,14.13-12.99Z" fill="#5088ff"/><path d="M424.34,459.82c2.92,2.6,4.14,5.44,4.14,8.85,0,6.58-5.36,11.77-11.85,11.77-2.92,0-4.87-.73-8.04-2.11-3.57-1.54-7.96-2.92-12.83-2.92-6.49,0-8.77,2.27-8.77,4.71,0,2.6,2.27,3.9,8.12,5.2l10.39,2.27c17.54,4.06,25.82,12.34,25.82,27.12,0,18.02-16.56,28.58-35.56,28.58-15.34,0-26.79-5.28-32.15-9.5-2.92-2.43-4.38-5.68-4.38-9.25,0-6.49,5.11-11.53,11.2-11.53,3.17,0,5.11,.65,7.96,2.19,4.79,2.6,9.9,5.03,17.7,5.03,6.82,0,9.42-2.44,9.42-5.2,0-2.27-1.79-4.14-7.47-5.36l-12.18-2.76c-12.26-3.09-24.19-10.88-24.19-26.47,0-18.19,16.24-28.58,35.72-28.58,9.74,0,20.78,2.76,26.95,7.96Z" fill="#5088ff"/><path d="M507.32,459.82c2.92,2.6,4.14,5.44,4.14,8.85,0,6.58-5.36,11.77-11.85,11.77-2.92,0-4.87-.73-8.04-2.11-3.57-1.54-7.96-2.92-12.83-2.92-6.49,0-8.77,2.27-8.77,4.71,0,2.6,2.27,3.9,8.12,5.2l10.39,2.27c17.54,4.06,25.82,12.34,25.82,27.12,0,18.02-16.56,28.58-35.56,28.58-15.34,0-26.79-5.28-32.15-9.5-2.92-2.43-4.38-5.68-4.38-9.25,0-6.49,5.11-11.53,11.2-11.53,3.17,0,5.11,.65,7.96,2.19,4.79,2.6,9.9,5.03,17.7,5.03,6.82,0,9.42-2.44,9.42-5.2,0-2.27-1.79-4.14-7.47-5.36l-12.18-2.76c-12.26-3.09-24.19-10.88-24.19-26.47,0-18.19,16.24-28.58,35.72-28.58,9.74,0,20.78,2.76,26.95,7.96Z" fill="#5088ff"/><path d="M734.54,466.07c0,1.95-.57,4.3-1.46,6.41l-28.74,66.57c-8.12,18.84-16.89,28.01-22.24,32.15-2.6,2.03-5.93,3.9-9.99,3.9-7.39,0-13.4-6.01-13.4-12.66,0-4.14,1.14-7.88,4.87-10.96,3.74-3.09,9.9-9.01,12.99-16.81l-26.06-62.19c-.89-2.11-1.46-4.47-1.46-6.41,0-7.39,5.93-13.4,13.39-13.4,6.33,0,11.12,4.22,13.07,9.9l15.51,45.46c.16,.49,.49,.97,1.14,.97s1.06-.49,1.14-.97l14.77-45.46c1.95-5.68,6.74-9.9,13.07-9.9,7.47,0,13.4,6.01,13.4,13.4Z" fill="#5088ff"/><path d="M824.01,488.72v39.94c0,7.63-5.68,13.8-13.48,13.8-7.14,0-13.31-6.17-13.31-13.8v-38.64c0-8.28-5.52-11.85-12.02-11.85-5.03,0-9.58,1.46-12.01,3.08v47.41c0,7.63-5.85,13.8-13.48,13.8-7.14,0-13.48-6.17-13.48-13.8v-58.78c0-4.55,1.3-6.82,4.55-9.09,5.2-3.57,17.54-8.93,35.07-8.93,25.33,0,38.16,13.15,38.16,36.86Z" fill="#5088ff"/><path d="M917.71,476.79c0,7.14-5.85,12.91-13.07,12.91-3.74,0-8.12-2.27-10.07-5.2-3.41-5.03-7.39-7.14-13.48-7.14-8.2,0-13.07,4.3-14.12,12.5-.33,3.98-.24,10.72,.16,14.61,.89,8.52,5.92,13.31,13.96,13.31,6.09,0,10.07-2.11,13.48-7.14,1.95-2.92,6.33-5.2,10.07-5.2,7.22,0,13.07,5.76,13.07,12.91,0,13.56-17.13,24.92-37.59,24.92s-37.75-14.77-39.62-34.75c-.57-5.85-.57-15.67,0-23.22,1.3-19.4,17.94-33.45,39.62-33.45,20.46,0,37.59,11.37,37.59,24.92Z" fill="#5088ff"/><path d="M639.72,448.72c0-12.34-9.72-22.73-22.04-23.68-1.08-.09-2.21-.14-3.32-.14-3.23,0-6.36,.36-9.36,1.06-5.44,1.24-10.49,3.52-14.91,6.65-.02,0-.02,.02-.02,.02-5.1,3.99-9.45,9.36-13.24,15.25-4.89,7.6-8.89,15.99-12.38,23.5-4.98,.43-10.58,.02-16.55-2.55-6.18-2.66-8.59-5.86-10.44-4.65-4.04,2.66,2.89,21.38,13.44,35.86-7.53,15.27-17.05,31.08-27.58,33.56-1.85,.34-3.2,1.53-3.2,3.54,0,1.47,.95,2.73,2.28,3.2l-.09,.07c7.4,1.87,15.11,2.86,23.07,2.86,29.25,0,55.44-13.35,72.74-34.26,6.47-7.83,11.71-16.71,15.4-26.37,4.01-10.49,6.22-21.88,6.22-33.76,0-.07,0-.11-.02-.18Zm-11.73,4.98l-3.7,5.03c-.74,1.01-1.94,1.49-3.11,1.35-.56-.07-1.13-.27-1.62-.63-1.51-1.11-1.83-3.23-.72-4.74l3.72-5.03c1.11-1.51,3.23-1.83,4.74-.72,1.49,1.11,1.83,3.23,.7,4.74Z" fill="#5088ff"/></svg>