<?xml version="1.0" encoding="UTF-8"?><svg id="b" xmlns="http://www.w3.org/2000/svg" viewBox="0 0 370.41 66.6"><g id="c"><path d="M41.1,13.93c.57,1.49,.64,2.27,.64,3.34,0,3.12-2.98,5.61-5.89,5.61s-4.12-1.7-5.25-3.41c-1.29-1.94-3.11-3.32-4.38-4.1-2.98-1.82-4.36-.49-7.97-2.41-2.47-1.31-2.77-2.43-3.62-2.19-2.16,.63-3.48,8.84,.21,13.29,2.63,3.17,6.75,3.07,6.76,4.74,.01,1.64-3.99,1.61-6.6,4.74-3.76,4.5-2.56,12.86-.34,13.54,.69,.21,.97-.47,3.01-1.6,4.02-2.22,5.44-.95,8.56-2.94,2.76-1.77,4.38-4.1,4.38-4.1,1.21-1.99,2.41-3.41,5.25-3.41,2.66,0,5.89,2.34,5.89,5.61,0,1.07-.07,1.85-.64,3.34-3.2,7.24-11.01,10.86-18.89,10.86C9.71,54.83,1.26,45.88,.27,34.52c-.35-3.83-.35-7.46,0-11.01C1.26,12.01,9.71,3.06,22.14,3.06c7.95,0,15.76,3.62,18.96,10.86Z" fill="#5088ff"/><path d="M72.46,12.75c2.27,.61,4.82,2.02,4.82,5.65,0,3.2-2.09,5.79-5.11,5.79-.65,0-1.58-.14-2.23-.29-.86-.14-1.51-.29-2.74-.29-1.87,0-2.95,1.01-2.95,3.67v18.86c0,3.31-2.59,5.97-5.98,5.97s-5.98-2.66-5.98-5.97V24.77c0-7.77,4.54-12.81,13.25-12.81,2.74,0,5.36,.4,6.91,.79Z" fill="#5088ff"/><path d="M81.03,37.3c-.29-2.88-.29-7.2,0-10.15,.79-8.71,8.06-15.19,17.93-15.19s17.13,6.48,17.93,15.19c.29,2.95,.29,7.27,0,10.15-.79,8.71-8.06,15.19-17.93,15.19s-17.13-6.48-17.93-15.19Zm24.19-1.94c.22-2.3,.14-4.32,0-6.19-.29-3.38-2.34-5.83-6.26-5.83s-5.98,2.45-6.26,5.83c-.14,1.87-.22,3.89,0,6.19,.29,3.53,2.34,5.76,6.26,5.76s5.98-2.23,6.26-5.76Z" fill="#5088ff"/><path d="M151.66,15.48c1.3,1.15,1.84,2.41,1.84,3.92,0,2.92-2.38,5.22-5.26,5.22-1.3,0-2.16-.32-3.56-.94-1.58-.68-3.53-1.29-5.69-1.29-2.88,0-3.89,1.01-3.89,2.09,0,1.15,1.01,1.73,3.6,2.3l4.61,1.01c7.77,1.8,11.45,5.47,11.45,12.02,0,7.99-7.34,12.67-15.77,12.67-6.8,0-11.88-2.34-14.25-4.21-1.3-1.08-1.94-2.52-1.94-4.1,0-2.88,2.27-5.11,4.97-5.11,1.4,0,2.27,.29,3.53,.97,2.12,1.15,4.39,2.23,7.85,2.23,3.02,0,4.18-1.08,4.18-2.3,0-1.01-.79-1.84-3.31-2.38l-5.4-1.22c-5.44-1.37-10.73-4.82-10.73-11.73,0-8.06,7.2-12.67,15.84-12.67,4.32,0,9.21,1.22,11.95,3.53Z" fill="#5088ff"/><path d="M188.45,15.48c1.3,1.15,1.84,2.41,1.84,3.92,0,2.92-2.38,5.22-5.26,5.22-1.3,0-2.16-.32-3.56-.94-1.58-.68-3.53-1.29-5.69-1.29-2.88,0-3.89,1.01-3.89,2.09,0,1.15,1.01,1.73,3.6,2.3l4.61,1.01c7.77,1.8,11.45,5.47,11.45,12.02,0,7.99-7.34,12.67-15.77,12.67-6.8,0-11.88-2.34-14.25-4.21-1.3-1.08-1.94-2.52-1.94-4.1,0-2.88,2.27-5.11,4.97-5.11,1.4,0,2.27,.29,3.53,.97,2.12,1.15,4.39,2.23,7.85,2.23,3.02,0,4.18-1.08,4.18-2.3,0-1.01-.79-1.84-3.31-2.38l-5.4-1.22c-5.44-1.37-10.73-4.82-10.73-11.73,0-8.06,7.2-12.67,15.84-12.67,4.32,0,9.21,1.22,11.95,3.53Z" fill="#5088ff"/><path d="M289.2,18.25c0,.86-.25,1.91-.65,2.84l-12.74,29.52c-3.6,8.35-7.49,12.42-9.86,14.25-1.15,.9-2.63,1.73-4.43,1.73-3.28,0-5.94-2.66-5.94-5.62,0-1.84,.5-3.49,2.16-4.86,1.66-1.37,4.39-4,5.76-7.45l-11.55-27.57c-.4-.94-.65-1.98-.65-2.84,0-3.28,2.63-5.94,5.94-5.94,2.81,0,4.93,1.87,5.8,4.39l6.88,20.16c.07,.22,.22,.43,.5,.43s.47-.22,.5-.43l6.55-20.16c.86-2.52,2.99-4.39,5.8-4.39,3.31,0,5.94,2.66,5.94,5.94Z" fill="#5088ff"/><path d="M328.87,28.3v17.71c0,3.38-2.52,6.12-5.98,6.12-3.17,0-5.9-2.74-5.9-6.12V28.87c0-3.67-2.45-5.25-5.33-5.25-2.23,0-4.25,.65-5.33,1.37v21.02c0,3.38-2.59,6.12-5.98,6.12-3.17,0-5.97-2.74-5.97-6.12V19.95c0-2.02,.58-3.02,2.02-4.03,2.3-1.58,7.78-3.96,15.55-3.96,11.23,0,16.92,5.83,16.92,16.34Z" fill="#5088ff"/><path d="M370.41,23.01c0,3.17-2.59,5.72-5.79,5.72-1.66,0-3.6-1.01-4.46-2.3-1.51-2.23-3.28-3.17-5.98-3.17-3.63,0-5.79,1.91-6.26,5.54-.14,1.76-.11,4.75,.07,6.48,.4,3.78,2.63,5.9,6.19,5.9,2.7,0,4.46-.94,5.98-3.17,.86-1.29,2.81-2.3,4.46-2.3,3.2,0,5.79,2.56,5.79,5.72,0,6.01-7.59,11.05-16.67,11.05s-16.74-6.55-17.57-15.41c-.25-2.59-.25-6.95,0-10.29,.58-8.6,7.96-14.83,17.57-14.83,9.07,0,16.67,5.04,16.67,11.05Z" fill="#5088ff"/><path d="M247.16,10.56c0-5.47-4.31-10.08-9.77-10.5-.48-.04-.98-.06-1.47-.06-1.43,0-2.82,.16-4.15,.47-2.41,.55-4.65,1.56-6.61,2.95-.01,0-.01,.01-.01,.01-2.26,1.77-4.19,4.15-5.87,6.76-2.17,3.37-3.94,7.09-5.49,10.42-2.21,.19-4.69,.01-7.34-1.13-2.74-1.18-3.81-2.6-4.63-2.06-1.79,1.18,1.28,9.48,5.96,15.9-3.34,6.77-7.56,13.78-12.23,14.88-.82,.15-1.42,.68-1.42,1.57,0,.65,.42,1.21,1.01,1.42l-.04,.03c3.28,.83,6.7,1.27,10.23,1.27,12.97,0,24.58-5.92,32.25-15.19,2.87-3.47,5.19-7.41,6.83-11.69,1.78-4.65,2.76-9.7,2.76-14.97,0-.03,0-.05-.01-.08Zm-5.2,2.21l-1.64,2.23c-.33,.45-.86,.66-1.38,.6-.25-.03-.5-.12-.72-.28-.67-.49-.81-1.43-.32-2.1l1.65-2.23c.49-.67,1.43-.81,2.1-.32,.66,.49,.81,1.43,.31,2.1Z" fill="#5088ff"/></g></svg>