<?xml version="1.0" encoding="UTF-8"?><svg id="b" xmlns="http://www.w3.org/2000/svg" viewBox="0 0 600 600"><g id="c"><g><path d="M600,300c0,165.69-134.31,300-300,300-85.14,0-162.04-35.48-216.63-92.47,16.84,4.17,34.31,6.37,52.35,6.37,67.85,0,128.58-30.95,168.69-79.45,15.03-18.15,27.17-38.77,35.73-61.16,9.34-24.3,14.47-50.73,14.47-78.32,0-.14,0-.25-.07-.39,0-28.62-22.53-52.74-51.11-54.93-2.51-.21-5.13-.32-7.68-.32-7.5,0-14.75,.85-21.72,2.48-12.59,2.87-24.3,8.14-34.56,15.42-.07,0-.07,.04-.07,.04-11.81,9.27-21.9,21.72-30.7,35.37-11.35,17.62-20.59,37.07-28.72,54.51-11.53,.99-24.51,.04-38.38-5.91-14.33-6.19-19.95-13.62-24.23-10.79-9.34,6.19,6.72,49.59,31.2,83.16-17.47,35.44-39.55,72.09-63.99,77.86-4.28,.78-7.43,3.54-7.43,8.21,0,.42,.04,.85,.11,1.24C29.22,447.72,0,377.29,0,300,0,134.31,134.31,0,300,0s300,134.31,300,300Z" fill="#5088ff"/><path d="M327.34,306.12l-8.56,11.67c-1.73,2.37-4.53,3.47-7.22,3.15-1.31-.14-2.62-.64-3.78-1.45-3.5-2.58-4.24-7.5-1.66-11l8.63-11.67c2.55-3.5,7.46-4.24,10.97-1.66,3.47,2.55,4.24,7.46,1.63,10.97Z" fill="#5088ff"/></g></g></svg>